<svg width="25" height="26" viewBox="0 0 25 26" fill="none" xmlns="http://www.w3.org/2000/svg">
<path fill-rule="evenodd" clip-rule="evenodd" d="M12.5 0.5C5.6075 0.5 0 6.1075 0 13C0 19.8925 5.6075 25.5 12.5 25.5C19.3925 25.5 25 19.8925 25 13C25 6.1075 19.3925 0.5 12.5 0.5ZM12.5 2.375C18.3587 2.375 23.125 7.14125 23.125 13C23.125 18.8587 18.3587 23.625 12.5 23.625C6.64125 23.625 1.875 18.8587 1.875 13C1.875 7.14125 6.64125 2.375 12.5 2.375ZM13.6405 7.99713L9.283 12.3359C9.10675 12.5121 9.008 12.7509 9.008 12.9996C9.008 13.2496 9.10675 13.4884 9.283 13.6646L13.6405 18.0021C13.823 18.1846 14.063 18.2759 14.3017 18.2759C14.5417 18.2759 14.783 18.1846 14.9655 17.9996C15.3305 17.6321 15.3292 17.0396 14.963 16.6746L11.273 12.9996L14.963 9.32588C15.3292 8.96088 15.3305 8.36713 14.9655 7.99963C14.6005 7.63088 14.008 7.63338 13.6405 7.99713Z" fill="white"/>
</svg>
