<svg width="23" height="25" viewBox="0 0 23 25" fill="none" xmlns="http://www.w3.org/2000/svg">
<path fill-rule="evenodd" clip-rule="evenodd" d="M15.8404 0.289551C16.3152 0.289551 16.7006 0.674936 16.7006 1.14978L16.7011 2.12221C18.3759 2.23702 19.7668 2.81066 20.7512 3.79713C21.8259 4.87643 22.3914 6.4283 22.3857 8.28984V18.7537C22.3857 22.5755 19.9586 24.9497 16.0531 24.9497H6.352C2.44654 24.9497 0.0195312 22.5422 0.0195312 18.6666V8.28755C0.0195312 4.68281 2.18394 2.36895 5.71392 2.1226L5.71462 1.14978C5.71462 0.674936 6.10001 0.289551 6.57486 0.289551C7.04971 0.289551 7.43509 0.674936 7.43509 1.14978L7.43475 2.10063H14.9796L14.9801 1.14978C14.9801 0.674936 15.3655 0.289551 15.8404 0.289551ZM20.6651 10.5022H1.74V18.6666C1.74 21.6097 3.37788 23.2292 6.352 23.2292H16.0531C19.0273 23.2292 20.6652 21.6395 20.6652 18.7537L20.6651 10.5022ZM16.308 17.7194C16.7829 17.7194 17.1682 18.1048 17.1682 18.5796C17.1682 19.0545 16.7829 19.4399 16.308 19.4399C15.8332 19.4399 15.4432 19.0545 15.4432 18.5796C15.4432 18.1048 15.8228 17.7194 16.2977 17.7194H16.308ZM11.2183 17.7194C11.6931 17.7194 12.0785 18.1048 12.0785 18.5796C12.0785 19.0545 11.6931 19.4399 11.2183 19.4399C10.7434 19.4399 10.3535 19.0545 10.3535 18.5796C10.3535 18.1048 10.7331 17.7194 11.208 17.7194H11.2183ZM6.1179 17.7194C6.59275 17.7194 6.97814 18.1048 6.97814 18.5796C6.97814 19.0545 6.59275 19.4399 6.1179 19.4399C5.64305 19.4399 5.25193 19.0545 5.25193 18.5796C5.25193 18.1048 5.63273 17.7194 6.10758 17.7194H6.1179ZM16.308 13.2614C16.7829 13.2614 17.1682 13.6468 17.1682 14.1217C17.1682 14.5965 16.7829 14.9819 16.308 14.9819C15.8332 14.9819 15.4432 14.5965 15.4432 14.1217C15.4432 13.6468 15.8228 13.2614 16.2977 13.2614H16.308ZM11.2183 13.2614C11.6931 13.2614 12.0785 13.6468 12.0785 14.1217C12.0785 14.5965 11.6931 14.9819 11.2183 14.9819C10.7434 14.9819 10.3535 14.5965 10.3535 14.1217C10.3535 13.6468 10.7331 13.2614 11.208 13.2614H11.2183ZM6.1179 13.2614C6.59275 13.2614 6.97814 13.6468 6.97814 14.1217C6.97814 14.5965 6.59275 14.9819 6.1179 14.9819C5.64305 14.9819 5.25193 14.5965 5.25193 14.1217C5.25193 13.6468 5.63273 13.2614 6.10758 13.2614H6.1179ZM14.9796 3.8211H7.43475L7.43509 4.92449C7.43509 5.39934 7.04971 5.78473 6.57486 5.78473C6.10001 5.78473 5.71462 5.39934 5.71462 4.92449L5.71401 3.84714C3.14452 4.06299 1.74 5.62054 1.74 8.28755V8.78178H20.6651L20.6652 8.28755C20.6697 6.87103 20.2889 5.76993 19.5331 5.01292C18.8696 4.34746 17.8996 3.95002 16.7016 3.84769L16.7006 4.92449C16.7006 5.39934 16.3152 5.78473 15.8404 5.78473C15.3655 5.78473 14.9801 5.39934 14.9801 4.92449L14.9796 3.8211Z" fill="#057487"/>
</svg>
