<svg width="37" height="22" viewBox="0 0 37 22" fill="none" xmlns="http://www.w3.org/2000/svg">
<path d="M12.4718 21.086C13.2915 21.086 14.0777 20.7604 14.6574 20.1807C15.237 19.6011 15.5627 18.8149 15.5627 17.9951C15.5627 17.1754 15.237 16.3892 14.6574 15.8095C14.0777 15.2299 13.2915 14.9042 12.4718 14.9042C11.652 14.9042 10.8658 15.2299 10.2862 15.8095C9.70651 16.3892 9.38086 17.1754 9.38086 17.9951C9.38086 18.8149 9.70651 19.6011 10.2862 20.1807C10.8658 20.7604 11.652 21.086 12.4718 21.086ZM27.9263 21.086C28.7461 21.086 29.5323 20.7604 30.1119 20.1807C30.6916 19.6011 31.0172 18.8149 31.0172 17.9951C31.0172 17.1754 30.6916 16.3892 30.1119 15.8095C29.5323 15.2299 28.7461 14.9042 27.9263 14.9042C27.1066 14.9042 26.3204 15.2299 25.7407 15.8095C25.1611 16.3892 24.8354 17.1754 24.8354 17.9951C24.8354 18.8149 25.1611 19.6011 25.7407 20.1807C26.3204 20.7604 27.1066 21.086 27.9263 21.086Z" stroke="#057487" stroke-width="1.8" stroke-miterlimit="1.5" stroke-linecap="round" stroke-linejoin="round"/>
<path d="M15.6407 17.9951H23.2907V1.92239C23.2907 1.67646 23.193 1.44061 23.0191 1.26671C22.8452 1.09281 22.6093 0.995117 22.3634 0.995117H1.6543M8.84066 17.9951H5.67248C5.55071 17.9951 5.43013 17.9711 5.31763 17.9245C5.20513 17.8779 5.1029 17.8096 5.0168 17.7235C4.93069 17.6374 4.86239 17.5352 4.81579 17.4227C4.76919 17.3102 4.74521 17.1896 4.74521 17.0678V9.49512" stroke="#057487" stroke-width="1.8" stroke-linecap="round"/>
<path d="M3.19922 5.63193H9.38104" stroke="#057487" stroke-width="1.8" stroke-linecap="round" stroke-linejoin="round"/>
<path d="M23.291 5.63193H31.961C32.1403 5.63197 32.3156 5.68396 32.4659 5.78161C32.6162 5.87925 32.735 6.01836 32.8079 6.18211L35.5743 12.4072C35.627 12.5254 35.6544 12.6533 35.6547 12.7827V17.0683C35.6547 17.1901 35.6307 17.3106 35.5841 17.4231C35.5375 17.5356 35.4692 17.6379 35.3831 17.724C35.297 17.8101 35.1947 17.8784 35.0822 17.925C34.9697 17.9716 34.8491 17.9956 34.7274 17.9956H31.791M23.291 17.9956H24.8365" stroke="#057487" stroke-width="1.8" stroke-linecap="round"/>
</svg>
