<svg width="26" height="26" viewBox="0 0 26 26" fill="none" xmlns="http://www.w3.org/2000/svg">
<path fill-rule="evenodd" clip-rule="evenodd" d="M7.09078 21.8249C7.99183 21.8249 8.72503 22.5568 8.72503 23.4579C8.72503 24.3589 7.99183 25.0921 7.09078 25.0921C6.18974 25.0921 5.45779 24.3589 5.45779 23.4579C5.45779 22.5568 6.18974 21.8249 7.09078 21.8249ZM21.3262 21.8249C22.2285 21.8249 22.9617 22.5568 22.9617 23.4579C22.9617 24.3589 22.2285 25.0921 21.3262 25.0921C20.4251 25.0921 19.6932 24.3589 19.6932 23.4579C19.6932 22.5568 20.4251 21.8249 21.3262 21.8249ZM1.69485 0.444101L4.31975 0.89841C4.74251 0.972866 5.06431 1.32369 5.10091 1.75276L5.39747 5.28754L6.50024 5.28801C6.6802 5.28809 6.85824 5.28817 7.0344 5.28825L9.05898 5.28922C9.22036 5.2893 9.37994 5.28938 9.53773 5.28946L11.7732 5.29068C11.9136 5.29077 12.0524 5.29085 12.1895 5.29093L13.756 5.29193C13.8801 5.29201 14.0026 5.2921 14.1236 5.29218L15.5014 5.2932C15.6102 5.29328 15.7175 5.29337 15.8233 5.29345L17.0247 5.29449C17.1191 5.29457 17.2123 5.29466 17.304 5.29475L18.0936 5.29553C18.1774 5.29562 18.2598 5.29571 18.341 5.29579L19.2554 5.29686C19.3267 5.29695 19.3968 5.29703 19.4658 5.29712L20.2378 5.2982C20.2977 5.29829 20.3564 5.29838 20.4141 5.29847L20.9048 5.29929C20.9562 5.29938 21.0066 5.29948 21.056 5.29957L21.6026 5.30067C21.6444 5.30077 21.6852 5.30086 21.7252 5.30095L22.0616 5.3018C22.0964 5.30189 22.1304 5.30198 22.1636 5.30208L22.5242 5.30321C22.5513 5.30331 22.5776 5.30341 22.6031 5.3035L22.8149 5.30437C22.8364 5.30446 22.8573 5.30456 22.8775 5.30465L23.0917 5.30582C23.1073 5.30592 23.1223 5.30602 23.1368 5.30612L23.2535 5.307C23.265 5.3071 23.2761 5.3072 23.2867 5.3073L23.3707 5.30819C23.3789 5.30829 23.3866 5.30839 23.394 5.30849L23.4512 5.3094C23.4566 5.3095 23.4616 5.3096 23.4664 5.3097L23.5026 5.31062C23.5059 5.31072 23.509 5.31082 23.5119 5.31093L23.5381 5.31216C23.5397 5.31227 23.5412 5.31237 23.5426 5.31247C23.5549 5.31362 23.5567 5.31383 23.5585 5.31404C24.2614 5.41626 24.8798 5.78349 25.3012 6.34886C25.7227 6.91296 25.8994 7.6083 25.7985 8.30491L24.6009 16.5809C24.375 18.1558 23.007 19.3434 21.4169 19.3434H7.63494C5.97293 19.3434 4.56583 18.046 4.4308 16.3866L3.27484 2.63867L1.37305 2.31055C0.856906 2.21969 0.512389 1.73131 0.600726 1.21516C0.691588 0.699019 1.19007 0.363335 1.69485 0.444101ZM6.24707 7.18092L5.55648 7.18049L6.31745 16.2313C6.37297 16.9279 6.94212 17.4504 7.63747 17.4504H21.4144C22.0719 17.4504 22.6334 16.9608 22.7268 16.3108L23.9257 8.03358C23.9535 7.83672 23.9042 7.63985 23.7844 7.48084C23.6657 7.32057 23.4916 7.21709 23.2947 7.18933C23.2856 7.18968 23.2638 7.18999 23.2299 7.19028L23.0927 7.19107C23.064 7.19118 23.0324 7.19129 22.998 7.1914L22.2831 7.19249C22.2228 7.19253 22.1601 7.19257 22.095 7.1926L20.4141 7.19253C20.3204 7.19249 20.2248 7.19245 20.1275 7.19241L18.2092 7.19124C18.0942 7.19116 17.9781 7.19107 17.8607 7.19098L16.7752 7.19012C16.6516 7.19001 16.527 7.18991 16.4016 7.1898L15.2519 7.18879C15.122 7.18867 14.9915 7.18855 14.8605 7.18843L14.0685 7.18771C13.9357 7.18758 13.8024 7.18746 13.6688 7.18734L12.4602 7.18621C12.3254 7.18608 12.1906 7.18595 12.0558 7.18583L11.2473 7.18508C11.1127 7.18495 10.9783 7.18483 10.8442 7.18471L10.0426 7.18398C9.90964 7.18386 9.77708 7.18374 9.64499 7.18362L8.47072 7.18261C8.34209 7.1825 8.21416 7.1824 8.087 7.1823L6.60302 7.18117C6.48326 7.18108 6.36459 7.181 6.24707 7.18092ZM19.3875 9.95216C19.91 9.95216 20.334 10.3762 20.334 10.8986C20.334 11.4211 19.91 11.8451 19.3875 11.8451H15.8894C15.3656 11.8451 14.9429 11.4211 14.9429 10.8986C14.9429 10.3762 15.3656 9.95216 15.8894 9.95216H19.3875Z" fill="white"/>
</svg>
