<svg width="27" height="26" viewBox="0 0 27 26" fill="none" xmlns="http://www.w3.org/2000/svg">
<path fill-rule="evenodd" clip-rule="evenodd" d="M7.45406 22.3469C8.35511 22.3469 9.08831 23.0788 9.08831 23.9799C9.08831 24.8809 8.35511 25.6141 7.45406 25.6141C6.55302 25.6141 5.82107 24.8809 5.82107 23.9799C5.82107 23.0788 6.55302 22.3469 7.45406 22.3469ZM21.6895 22.3469C22.5918 22.3469 23.325 23.0788 23.325 23.9799C23.325 24.8809 22.5918 25.6141 21.6895 25.6141C20.7884 25.6141 20.0565 24.8809 20.0565 23.9799C20.0565 23.0788 20.7884 22.3469 21.6895 22.3469ZM2.05813 0.966074L4.68303 1.42038C5.10579 1.49484 5.42759 1.84567 5.46419 2.27474L5.76075 5.80951L6.86352 5.80999C7.04348 5.81007 7.22152 5.81015 7.39768 5.81023L9.42226 5.81119C9.58364 5.81127 9.74322 5.81135 9.90101 5.81143L12.1365 5.81266C12.2769 5.81274 12.4156 5.81282 12.5527 5.8129L14.1193 5.8139C14.2434 5.81399 14.3659 5.81407 14.4868 5.81416L15.8647 5.81517C15.9735 5.81526 16.0808 5.81534 16.1866 5.81543L17.3879 5.81646C17.4824 5.81655 17.5755 5.81663 17.6673 5.81672L18.4569 5.8175C18.5406 5.81759 18.6231 5.81768 18.7043 5.81777L19.6187 5.81883C19.69 5.81892 19.7601 5.81901 19.829 5.8191L20.6011 5.82017C20.6609 5.82026 20.7197 5.82035 20.7774 5.82045L21.268 5.82127C21.3195 5.82136 21.3699 5.82145 21.4193 5.82154L21.9658 5.82265C22.0076 5.82274 22.0485 5.82283 22.0885 5.82293L22.4249 5.82377C22.4597 5.82386 22.4937 5.82396 22.5269 5.82405L22.8875 5.82519C22.9145 5.82528 22.9408 5.82538 22.9664 5.82547L23.1782 5.82634C23.1997 5.82643 23.2206 5.82653 23.2408 5.82663L23.455 5.82779C23.4706 5.82789 23.4856 5.82799 23.5001 5.82809L23.6168 5.82897C23.6283 5.82907 23.6394 5.82917 23.65 5.82927L23.734 5.83017C23.7421 5.83027 23.7499 5.83037 23.7573 5.83047L23.8144 5.83137C23.8198 5.83147 23.8249 5.83158 23.8297 5.83168L23.8659 5.83259C23.8692 5.83269 23.8723 5.8328 23.8752 5.8329L23.9014 5.83414C23.903 5.83424 23.9045 5.83434 23.9058 5.83445C23.9181 5.83559 23.9199 5.8358 23.9217 5.83601C24.6247 5.93823 25.243 6.30547 25.6645 6.87083C26.086 7.43493 26.2627 8.13027 26.1617 8.82688L24.9641 17.1029C24.7382 18.6778 23.3703 19.8653 21.7802 19.8653H7.99822C6.33621 19.8653 4.92911 18.568 4.79408 16.9085L3.63812 3.16064L1.73633 2.83253C1.22019 2.74166 0.87567 2.25328 0.964008 1.73714C1.05487 1.22099 1.55335 0.885308 2.05813 0.966074ZM6.61035 7.7029L5.91976 7.70247L6.68073 16.7533C6.73625 17.4499 7.3054 17.9724 8.00075 17.9724H21.7777C22.4352 17.9724 22.9967 17.4827 23.0901 16.8328L24.289 8.55556C24.3167 8.35869 24.2675 8.16182 24.1476 8.00281C24.029 7.84254 23.8549 7.73906 23.658 7.7113C23.6489 7.71165 23.6271 7.71197 23.5932 7.71226L23.456 7.71304C23.4273 7.71316 23.3957 7.71327 23.3613 7.71337L22.6464 7.71446C22.5861 7.7145 22.5234 7.71454 22.4583 7.71457L20.7774 7.7145C20.6836 7.71447 20.5881 7.71443 20.4908 7.71438L18.5725 7.71322C18.4575 7.71313 18.3413 7.71305 18.224 7.71296L17.1385 7.71209C17.0149 7.71198 16.8903 7.71188 16.7649 7.71177L15.6151 7.71076C15.4853 7.71064 15.3548 7.71053 15.2238 7.71041L14.4318 7.70968C14.2989 7.70956 14.1657 7.70943 14.0321 7.70931L12.8235 7.70818C12.6887 7.70805 12.5539 7.70793 12.419 7.7078L11.6106 7.70705C11.476 7.70692 11.3416 7.7068 11.2075 7.70668L10.4059 7.70595C10.2729 7.70583 10.1404 7.70571 10.0083 7.7056L8.834 7.70459C8.70537 7.70448 8.57744 7.70437 8.45028 7.70427L6.9663 7.70314C6.84654 7.70306 6.72787 7.70297 6.61035 7.7029ZM19.7508 10.4741C20.2733 10.4741 20.6973 10.8982 20.6973 11.4206C20.6973 11.9431 20.2733 12.3671 19.7508 12.3671H16.2526C15.7289 12.3671 15.3062 11.9431 15.3062 11.4206C15.3062 10.8982 15.7289 10.4741 16.2526 10.4741H19.7508Z" fill="#057487"/>
</svg>
