<svg width="26" height="26" viewBox="0 0 26 26" fill="none" xmlns="http://www.w3.org/2000/svg">
<path fill-rule="evenodd" clip-rule="evenodd" d="M9.56285 12.8874C9.58561 12.9077 9.60711 12.9266 9.6286 12.9494C10.9931 14.348 11.7455 16.2006 11.7455 18.1669V23.2049L14.573 21.6647C14.7956 21.5433 14.9334 21.3056 14.9334 21.0438V18.1518C14.9334 16.193 15.6782 14.3467 17.03 12.9557L23.1466 6.44962C23.5425 6.02852 23.76 5.47591 23.76 4.89296V3.70934C23.76 3.12258 23.2971 2.64585 22.7306 2.64585H3.92548C3.3577 2.64585 2.89487 3.12258 2.89487 3.70934V4.89296C2.89487 5.47591 3.11238 6.02852 3.50818 6.44835L9.56285 12.8874ZM11.2991 25.409C11.0436 25.409 10.7907 25.3407 10.5606 25.2042C10.1155 24.9386 9.84864 24.4695 9.84864 23.9485V18.1669C9.84864 16.7317 9.31373 15.3799 8.33876 14.3442C8.30968 14.3202 8.28059 14.2936 8.2553 14.2658L2.12729 7.74958C1.39891 6.97567 0.998047 5.96024 0.998047 4.89296V3.70934C0.998047 2.0768 2.31191 0.749023 3.92548 0.749023H22.7306C24.3429 0.749023 25.6568 2.0768 25.6568 3.70934V4.89296C25.6568 5.95897 25.2559 6.97314 24.5301 7.74831L18.4008 14.2658C17.3854 15.3129 16.8302 16.6899 16.8302 18.1518V21.0438C16.8302 21.9998 16.313 22.8749 15.4809 23.3301L11.9895 25.232C11.772 25.3496 11.5355 25.409 11.2991 25.409Z" fill="#057487"/>
</svg>
