<svg width="27" height="27" viewBox="0 0 27 27" fill="none" xmlns="http://www.w3.org/2000/svg">
<path fill-rule="evenodd" clip-rule="evenodd" d="M13.656 0.80249C17.1313 0.80249 20.3974 2.15366 22.8505 4.60802C27.9213 9.67883 27.9213 17.9286 22.8505 22.9994C20.3647 25.4864 17.0176 26.8025 13.627 26.8025C11.7787 26.8025 9.91825 26.4118 8.17758 25.6062C7.66469 25.4005 7.18446 25.207 6.83971 25.207C6.44295 25.2094 5.9095 25.3933 5.39419 25.5711C4.33697 25.934 3.02088 26.3864 2.04712 25.4162C1.07699 24.4449 1.52456 23.1324 1.88503 22.0764C2.06285 21.5563 2.2455 21.0192 2.2455 20.6128C2.2455 20.2789 2.08462 19.8531 1.83785 19.2398C-0.427802 14.3468 0.619746 8.44983 4.46277 4.60923C6.91592 2.15487 10.1807 0.80249 13.656 0.80249ZM13.6572 2.61695C10.6658 2.61695 7.85581 3.78062 5.74499 5.89265C2.43783 9.19739 1.53786 14.2718 3.50353 18.5213C3.78658 19.2217 4.05996 19.9039 4.05996 20.6128C4.05996 21.3204 3.81682 22.0329 3.60272 22.6619C3.42611 23.1796 3.15878 23.961 3.33055 24.1328C3.49869 24.307 4.28495 24.0324 4.80389 23.8546C5.42685 23.6417 6.13328 23.3974 6.83367 23.3925C7.53526 23.3925 8.19693 23.6586 8.89731 23.9405C13.1879 25.9243 18.2623 25.0219 21.5683 21.7172C25.9302 17.3528 25.9302 10.2534 21.5683 5.89145C19.4563 3.77941 16.6475 2.61695 13.6572 2.61695ZM18.4316 13.0957C19.0993 13.0957 19.6412 13.6364 19.6412 14.3053C19.6412 14.9743 19.0993 15.515 18.4316 15.515C17.7638 15.515 17.2171 14.9743 17.2171 14.3053C17.2171 13.6364 17.753 13.0957 18.4207 13.0957H18.4316ZM13.5824 13.0957C14.2501 13.0957 14.792 13.6364 14.792 14.3053C14.792 14.9743 14.2501 15.515 13.5824 15.515C12.9146 15.515 12.3679 14.9743 12.3679 14.3053C12.3679 13.6364 12.9025 13.0957 13.5715 13.0957H13.5824ZM8.73268 13.0957C9.4004 13.0957 9.94232 13.6364 9.94232 14.3053C9.94232 14.9743 9.4004 15.515 8.73268 15.515C8.06496 15.515 7.5182 14.9743 7.5182 14.3053C7.5182 13.6364 8.05407 13.0957 8.72179 13.0957H8.73268Z" fill="#057487"/>
</svg>
