<svg width="28" height="21" viewBox="0 0 28 21" fill="none" xmlns="http://www.w3.org/2000/svg">
<path d="M11.6076 19.7808L11.6067 19.7818C11.2157 20.1755 10.7018 20.3714 10.1855 20.3714C9.67217 20.3714 9.15516 20.1753 8.76437 19.7818L8.76334 19.7808L1.12648 12.1471C1.12646 12.1471 1.12644 12.1471 1.12642 12.1471C0.340133 11.3607 0.340153 10.0892 1.12648 9.30291C1.91282 8.51657 3.18436 8.51657 3.9707 9.30291L3.97086 9.30306L9.90283 15.2286L10.1856 15.5111L10.4683 15.2285L24.0308 1.66923L24.0308 1.6692C24.8171 0.882858 26.0887 0.882858 26.875 1.6692C27.6614 2.45554 27.6614 3.72709 26.875 4.51343L11.6076 19.7808Z" fill="white" stroke="#057487" stroke-width="0.8"/>
</svg>
