<svg width="38" height="38" viewBox="0 0 38 38" fill="none" xmlns="http://www.w3.org/2000/svg">
<path fill-rule="evenodd" clip-rule="evenodd" d="M26.555 0.366211C32.8247 0.366211 37.0371 4.76551 37.0371 11.3108V26.4216C37.0371 32.9669 32.8247 37.3662 26.5532 37.3662H10.5174C4.24771 37.3662 0.0371094 32.9669 0.0371094 26.4216V11.3108C0.0371094 4.76551 4.24771 0.366211 10.5174 0.366211H26.555ZM26.555 3.14121H10.5174C5.83686 3.14121 2.81211 6.34726 2.81211 11.3108V26.4216C2.81211 31.3852 5.83686 34.5912 10.5174 34.5912H26.5532C31.2355 34.5912 34.2621 31.3852 34.2621 26.4216V11.3108C34.2621 6.34726 31.2355 3.14121 26.555 3.14121ZM26.1027 13.4957C26.6447 14.0377 26.6447 14.9146 26.1027 15.4567L17.3226 24.2368C17.0525 24.5087 16.6973 24.6438 16.3421 24.6438C15.9887 24.6438 15.6317 24.5087 15.3616 24.2368L10.9697 19.8467C10.4276 19.3047 10.4276 18.4278 10.9697 17.8857C11.5117 17.3437 12.3886 17.3437 12.9307 17.8857L16.3421 21.2934L24.1417 13.4957C24.6837 12.9536 25.5606 12.9536 26.1027 13.4957Z" fill="white"/>
</svg>
