<svg width="283" height="40" viewBox="0 0 283 40" fill="none" xmlns="http://www.w3.org/2000/svg">
<path d="M280.62 19.677C280.62 20.2548 280.185 21.1845 278.419 22.3876C276.715 23.5484 274.105 24.7271 270.6 25.8821C263.611 28.1855 253.417 30.2826 240.727 32.0516C215.367 35.5865 180.285 37.7783 141.5 37.7783C102.716 37.7783 67.634 35.5865 42.2745 32.0516C29.5835 30.2826 19.3902 28.1855 12.4009 25.8821C8.89617 24.7271 6.28622 23.5484 4.58223 22.3876C2.81605 21.1845 2.38086 20.2548 2.38086 19.677C2.38086 19.0992 2.81605 18.1695 4.58223 16.9664C6.28622 15.8056 8.89617 14.627 12.4009 13.4719C19.3902 11.1685 29.5835 9.07143 42.2745 7.30241C67.634 3.76749 102.716 1.57568 141.5 1.57568C180.285 1.57568 215.367 3.76749 240.727 7.30241C253.417 9.07143 263.611 11.1685 270.6 13.4719C274.105 14.627 276.715 15.8056 278.419 16.9664C280.185 18.1695 280.62 19.0992 280.62 19.677Z" stroke="url(#paint0_linear_173_32)" stroke-width="3"/>
<defs>
<linearGradient id="paint0_linear_173_32" x1="141.5" y1="61.6772" x2="141.5" y2="0.0756836" gradientUnits="userSpaceOnUse">
<stop stop-color="#368E9E"/>
<stop offset="1" stop-color="#368E9E" stop-opacity="0"/>
</linearGradient>
</defs>
</svg>
