<svg width="26" height="26" viewBox="0 0 26 26" fill="none" xmlns="http://www.w3.org/2000/svg">
<path fill-rule="evenodd" clip-rule="evenodd" d="M18.7632 0.966797C22.9995 0.966797 25.8457 3.9393 25.8457 8.3618V18.5718C25.8457 22.9943 22.9995 25.9668 18.762 25.9668H7.92695C3.6907 25.9668 0.845703 22.9943 0.845703 18.5718V8.3618C0.845703 3.9393 3.6907 0.966797 7.92695 0.966797H18.7632ZM18.7632 2.8418H7.92695C4.76445 2.8418 2.7207 5.00805 2.7207 8.3618V18.5718C2.7207 21.9255 4.76445 24.0918 7.92695 24.0918H18.762C21.9257 24.0918 23.9707 21.9255 23.9707 18.5718V8.3618C23.9707 5.00805 21.927 2.8418 18.7632 2.8418ZM13.3446 7.0713C13.8621 7.0713 14.2821 7.4913 14.2821 8.0088V12.9288L18.0646 15.1825C18.5083 15.4488 18.6546 16.0238 18.3896 16.4688C18.2133 16.7625 17.9021 16.9263 17.5833 16.9263C17.4196 16.9263 17.2546 16.8838 17.1033 16.795L12.8646 14.2663C12.5821 14.0963 12.4071 13.79 12.4071 13.4613V8.0088C12.4071 7.4913 12.8271 7.0713 13.3446 7.0713Z" fill="#057487"/>
</svg>
