<svg width="22" height="26" viewBox="0 0 22 26" fill="none" xmlns="http://www.w3.org/2000/svg">
<path fill-rule="evenodd" clip-rule="evenodd" d="M11.3862 0.451172C17.1389 0.451172 21.8193 5.16692 21.8193 10.9639C21.8193 18.09 13.6549 25.1112 11.3862 25.1112C9.11748 25.1112 0.953125 18.09 0.953125 10.9639C0.953125 5.16692 5.63347 0.451172 11.3862 0.451172ZM11.3862 2.34809C6.6793 2.34809 2.85005 6.21402 2.85005 10.9639C2.85005 17.0075 9.96224 22.8956 11.3862 23.2092C12.8102 22.8943 19.9224 17.0063 19.9224 10.9639C19.9224 6.21402 16.0931 2.34809 11.3862 2.34809ZM11.3875 6.77425C13.6537 6.77425 15.4975 8.61806 15.4975 10.8855C15.4975 13.1517 13.6537 14.9942 11.3875 14.9942C9.12127 14.9942 7.27747 13.1517 7.27747 10.8855C7.27747 8.61806 9.12127 6.77425 11.3875 6.77425ZM11.3875 8.67117C10.1671 8.67117 9.17439 9.6639 9.17439 10.8855C9.17439 12.1059 10.1671 13.0973 11.3875 13.0973C12.6078 13.0973 13.6005 12.1059 13.6005 10.8855C13.6005 9.6639 12.6078 8.67117 11.3875 8.67117Z" fill="#057487"/>
</svg>
