<svg width="27" height="26" viewBox="0 0 27 26" fill="none" xmlns="http://www.w3.org/2000/svg">
<path fill-rule="evenodd" clip-rule="evenodd" d="M13.132 2.26811C15.1881 0.968161 17.9196 0.609031 20.2792 1.36523C25.412 3.02051 27.0053 8.61612 25.5802 13.0686C23.3811 20.0615 13.9894 25.2777 13.591 25.4965C13.4494 25.5749 13.2926 25.6141 13.1358 25.6141C12.979 25.6141 12.8234 25.5762 12.6818 25.499C12.286 25.2828 2.96254 20.1437 0.690157 13.0698C0.688893 13.0698 0.688893 13.0686 0.688893 13.0686C-0.737512 8.61485 0.850754 3.01799 5.97848 1.36523C8.38616 0.586269 11.0101 0.92896 13.132 2.26811ZM6.56016 3.17099C2.4112 4.50888 1.36922 8.97145 2.49592 12.4907C4.26881 18.0066 11.2731 22.4667 13.1345 23.5706C15.0023 22.4553 22.0571 17.9459 23.7731 12.4957C24.8998 8.97272 23.8541 4.51015 19.6988 3.17099C17.6856 2.52481 15.3374 2.91809 13.7162 4.17251C13.3773 4.43301 12.9069 4.43807 12.5655 4.1801C10.8482 2.889 8.60493 2.5109 6.56016 3.17099ZM18.4848 5.68225C20.2084 6.23991 21.416 7.76622 21.564 9.57072C21.6057 10.093 21.2175 10.5507 20.6952 10.5925C20.6687 10.595 20.6434 10.5963 20.6168 10.5963C20.1274 10.5963 19.7127 10.2207 19.6722 9.72499C19.5887 8.68554 18.8933 7.80795 17.9031 7.48802C17.4036 7.32616 17.1305 6.79125 17.2911 6.29429C17.4542 5.79606 17.984 5.52545 18.4848 5.68225Z" fill="#057487"/>
</svg>
