<svg width="22" height="31" viewBox="0 0 22 31" fill="none" xmlns="http://www.w3.org/2000/svg">
<path fill-rule="evenodd" clip-rule="evenodd" d="M9.41079 1.92677C8.85247 2.36616 8.13621 3.22658 7.81957 3.83882C7.50294 4.45144 6.99625 4.9524 6.69376 4.9524C5.89873 4.9524 4.22683 7.57956 3.95608 9.25452C3.78973 10.2821 3.53275 10.6886 3.04977 10.6886C1.98743 10.6886 1.02108 13.5249 1.3599 15.6488C1.51171 16.6014 1.65512 18.1551 1.67845 19.1016C1.76755 22.6978 4.82759 26.0156 8.89797 26.9299C10.7553 27.3467 10.9098 27.4691 11.0877 28.6592C11.1928 29.3632 11.4789 30.0056 11.7232 30.0863C12.0318 30.188 12.1064 29.7754 11.9672 28.7383C11.7668 27.2435 11.7668 27.2435 13.3745 26.9865C18.4946 26.1678 21.3095 22.4744 21.3642 16.5039C21.3994 12.666 20.6315 10.3061 19.3473 10.3061C18.6881 10.3061 18.42 9.96351 18.0751 8.6809C17.781 7.58644 17.0682 6.5134 15.8926 5.396C14.9324 4.48318 14.1469 3.60287 14.1469 3.44035C14.1469 3.06368 11.3722 1.1283 10.8318 1.1283C10.6085 1.1283 9.9691 1.48776 9.41079 1.92677ZM13.1687 3.77419C14.2934 4.95584 14.2934 4.95584 13.0773 6.21053C11.553 7.78338 10.6311 7.79218 9.13545 6.24954C7.95686 5.03347 7.95686 5.03347 9.36948 3.47018C10.9439 1.72753 11.2437 1.75162 13.1687 3.77419ZM16.9879 8.19983C17.8273 9.96848 17.7485 10.4293 16.4781 11.1796C15.1504 11.9639 14.9118 11.9899 14.9118 11.3494C14.9118 11.0817 14.3806 10.2182 13.7313 9.43043C12.5508 7.9983 12.5508 7.9983 13.784 6.8461C15.2009 5.52257 15.8471 5.79562 16.9879 8.19983ZM8.61958 7.03845C9.55839 7.97727 9.5584 7.97727 8.60199 9.38645C8.07617 10.1612 7.64596 11.0293 7.64596 11.3157C7.64596 11.988 7.27043 11.9715 5.7928 11.2343C4.43218 10.5555 4.42301 10.5253 5.02339 8.73788C5.9297 6.03883 7.0777 5.49657 8.61958 7.03845ZM12.7125 9.44572C14.4326 11.2484 14.6276 12.313 13.6314 14.4626C12.9144 16.0106 12.6467 16.2802 12.1202 15.9857C11.7205 15.762 11.2238 15.7647 10.7978 15.993C9.6104 16.6282 7.99089 13.1081 8.6234 11.2675C9.63105 8.33711 11.0513 7.70423 12.7125 9.44572ZM20.2441 12.8637C21.2571 15.7869 20.5623 17.1758 17.6969 17.9566C12.9408 19.2523 12.454 14.3303 17.0946 11.8652C19.0567 10.8228 19.5959 10.9941 20.2441 12.8637ZM5.73276 12.2174C7.08382 12.9069 9.19969 15.6408 9.16298 16.6496C9.10868 18.1337 7.63219 18.822 5.43984 18.3853C2.82109 17.8637 2.29221 17.2607 2.29221 14.7968C2.29221 11.4599 3.0838 10.8664 5.73276 12.2174ZM12.7339 17.5196C13.324 17.9085 14.064 18.5941 14.3787 19.0435C14.9091 19.8006 15.0429 19.822 16.2131 19.3329C17.6368 18.7379 20.6479 18.1589 20.6479 18.4802C20.6479 22.3525 13.7924 28.1089 12.0303 25.7158C11.5515 25.0653 11.511 25.0645 11.2651 25.6982C10.4012 27.9269 4.56909 24.6439 3.0012 21.0461C1.96717 18.6741 2.54078 18.4668 6.88191 19.6427C7.66814 19.8557 8.10791 19.6259 9.3496 18.3544C11.0685 16.5941 11.259 16.5471 12.7339 17.5196Z" fill="#057487" stroke="#057487" stroke-width="0.7"/>
</svg>
