<svg width="26" height="26" viewBox="0 0 26 26" fill="none" xmlns="http://www.w3.org/2000/svg">
<path fill-rule="evenodd" clip-rule="evenodd" d="M18.6124 0.799561C22.4845 0.799561 25.4043 4.20346 25.4043 8.71736V17.3217C25.4043 19.6319 24.6462 21.7191 23.2682 23.1999C22.0322 24.5266 20.4287 25.2295 18.631 25.2295H7.17406C5.37988 25.2295 3.77755 24.5279 2.54034 23.1999C1.16244 21.7191 0.404297 19.6319 0.404297 17.3217V8.71736C0.404297 4.20346 3.32406 0.799561 7.19616 0.799561H18.6124ZM18.6124 2.67878H7.19616C4.27174 2.67878 2.14848 5.21824 2.14848 8.71736V17.3217C2.14848 19.1295 2.72523 20.7444 3.77174 21.8682C4.67406 22.8391 5.85197 23.3503 7.17755 23.3503H18.6124C18.6148 23.3477 18.6241 23.3503 18.631 23.3503C19.9578 23.3503 21.1345 22.8391 22.0369 21.8682C23.0845 20.7444 23.6601 19.1295 23.6601 17.3217V8.71736C23.6601 5.21824 21.5369 2.67878 18.6124 2.67878ZM20.445 8.47782C20.7485 8.87997 20.6915 9.4713 20.3182 9.79954L15.1508 14.3247C14.4973 14.8835 13.7159 15.1628 12.9357 15.1628C12.1578 15.1628 11.3822 14.886 10.7334 14.3322L5.51825 9.80205C5.14267 9.47631 5.08453 8.88373 5.38569 8.48033C5.68918 8.07817 6.23802 8.01428 6.61244 8.33876L11.8229 12.8639C12.4776 13.4227 13.3996 13.4227 14.0589 12.8589L19.2171 8.34126C19.5915 8.01177 20.1403 8.07441 20.445 8.47782Z" fill="#057487"/>
</svg>
