<svg width="43" height="33" viewBox="0 0 43 33" fill="none" xmlns="http://www.w3.org/2000/svg">
<path fill-rule="evenodd" clip-rule="evenodd" d="M21.3545 20.2831L21.5723 20.2832L22.0596 20.2848C25.7838 20.3094 34.2947 20.6856 34.2947 26.4542C34.2947 32.185 26.0805 32.5587 22.1176 32.5831L20.6494 32.5831C16.9249 32.5586 8.41238 32.1828 8.41238 26.4214C8.41238 20.6835 16.9249 20.3092 20.6494 20.2848L21.1367 20.2832C21.2122 20.2831 21.2849 20.2831 21.3545 20.2831ZM21.3545 23.1767C16.771 23.1767 11.306 23.74 11.306 26.4214C11.306 29.0421 16.4448 29.6549 20.9355 29.6896L21.3545 29.6912C25.9379 29.6912 31.4011 29.1298 31.4011 26.4542C31.4011 23.7458 25.9379 23.1767 21.3545 23.1767ZM36.6975 19.5003C41.3716 20.2006 42.3535 22.3958 42.3535 24.1146C42.3535 25.1641 41.9407 27.0796 39.1821 28.131C39.0124 28.1946 38.8388 28.2255 38.6671 28.2255C38.0845 28.2255 37.5347 27.8705 37.3148 27.2937C37.0293 26.5472 37.4055 25.71 38.152 25.4264C39.4599 24.9287 39.4599 24.3789 39.4599 24.1146C39.4599 23.2697 38.3854 22.6794 36.2673 22.3631C35.4783 22.2435 34.9324 21.5085 35.0501 20.7156C35.1677 19.9247 35.9008 19.3981 36.6975 19.5003ZM7.65696 20.7156C7.77463 21.5085 7.2287 22.2435 6.43972 22.3631C4.3216 22.6794 3.24711 23.2697 3.24711 24.1146C3.24711 24.3789 3.24711 24.9268 4.55695 25.4264C5.3035 25.71 5.67967 26.5472 5.39416 27.2937C5.17425 27.8705 4.62447 28.2255 4.04189 28.2255C3.8702 28.2255 3.69659 28.1946 3.52683 28.131C0.766336 27.0777 0.353516 25.1621 0.353516 24.1146C0.353516 22.3978 1.33541 20.2006 6.01146 19.5003C6.80817 19.4 7.53735 19.9247 7.65696 20.7156ZM21.3545 0.193848C26.2157 0.193848 30.1684 4.14843 30.1684 9.00775C30.1684 13.8671 26.2157 17.8216 21.3545 17.8216H21.3024C18.9489 17.8139 16.744 16.8918 15.0927 15.2251C13.4376 13.5603 12.5329 11.3496 12.5424 9.00196C12.5424 4.14843 16.4952 0.193848 21.3545 0.193848ZM21.3545 3.08745C18.0905 3.08745 15.4361 5.74377 15.4361 9.00775C15.4303 10.5896 16.036 12.0692 17.1453 13.1861C18.2545 14.303 19.7321 14.9223 21.3063 14.928L21.3545 16.3748V14.928C24.6185 14.928 27.2748 12.2737 27.2748 9.00775C27.2748 5.74377 24.6185 3.08745 21.3545 3.08745ZM33.2935 2.08337C36.6848 2.64087 39.1482 5.54218 39.1482 8.9817C39.1405 12.4444 36.5536 15.4151 33.1295 15.8955C33.062 15.9051 32.9945 15.909 32.9289 15.909C32.219 15.909 31.5997 15.3862 31.4975 14.6628C31.3875 13.87 31.9373 13.1388 32.7302 13.0289C34.7364 12.7472 36.2507 11.0072 36.2546 8.97785C36.2546 6.96583 34.8116 5.2644 32.8228 4.93838C32.0357 4.80914 31.5014 4.06452 31.6306 3.27553C31.7618 2.48654 32.5006 1.95798 33.2935 2.08337ZM11.0783 3.27553C11.2076 4.06452 10.6732 4.80914 9.88618 4.93838C7.89732 5.2644 6.45438 6.96583 6.45438 8.9817C6.45824 11.0072 7.97255 12.7492 9.97685 13.0289C10.7697 13.1388 11.3195 13.87 11.2095 14.6628C11.1073 15.3862 10.4881 15.909 9.77816 15.909C9.71257 15.909 9.64505 15.9051 9.57753 15.8955C6.15344 15.4151 3.5685 12.4444 3.56078 8.98556C3.56078 5.54218 6.0242 2.64087 9.41549 2.08337C10.2276 1.95605 10.9472 2.4904 11.0783 3.27553Z" fill="white"/>
</svg>
