<svg width="27" height="26" viewBox="0 0 27 26" fill="none" xmlns="http://www.w3.org/2000/svg">
<path fill-rule="evenodd" clip-rule="evenodd" d="M6.5347 0.954263C7.87834 0.972306 8.83584 1.97913 10.0472 3.253C10.3467 3.56695 10.6703 3.90978 11.0323 4.27065C12.7874 6.02687 12.2881 7.45952 11.8852 8.60949C11.4473 9.86411 11.0684 10.9467 13.3371 13.2154C15.6057 15.484 16.6871 15.1051 17.9406 14.6637C19.0917 14.2619 20.5208 13.7591 22.2794 15.5153C22.6367 15.8726 22.9735 16.1925 23.2862 16.4897C24.5649 17.707 25.5753 18.6681 25.5924 20.0153C25.6054 21.1629 24.9077 22.3345 23.1852 24.0571L22.4225 23.5398L23.0685 24.1689C22.6872 24.5599 21.6731 25.6016 19.6872 25.6136H19.6511C16.6535 25.6136 12.7452 23.2271 8.03471 18.5177C3.30493 13.7892 0.914775 9.86892 0.932717 6.86529C0.943645 4.88051 1.98415 3.86407 2.37509 3.48275L2.40846 3.44631L2.48937 3.36487C4.21552 1.63871 5.40157 0.929002 6.5347 0.954263ZM6.51185 2.75861H6.50222C5.96205 2.75861 5.14171 3.29991 3.99759 4.41126L3.76784 4.63688L3.77045 4.63633C3.77189 4.63633 3.75082 4.65884 3.71736 4.69297L3.63693 4.77346C3.34583 5.05614 2.74318 5.64435 2.7371 6.87491C2.72754 8.59626 3.85946 11.7923 9.30978 17.2415C14.7336 22.6641 17.9249 23.8093 19.6511 23.8093H19.6763C20.9069 23.8021 21.4939 23.1994 21.7766 22.9095C21.862 22.8217 21.9318 22.7555 21.9811 22.7158C23.1804 21.5093 23.7938 20.6132 23.7879 20.037C23.7806 19.45 23.0505 18.7571 22.0412 17.796C21.7201 17.4917 21.3712 17.1585 21.0031 16.7904C20.048 15.8389 19.5777 16.0013 18.5372 16.367C17.0997 16.871 15.1306 17.5614 12.062 14.4904C8.99222 11.4219 9.68027 9.45272 10.1819 8.01405C10.5452 6.97475 10.7112 6.50202 9.75726 5.54692C9.38436 5.17402 9.04875 4.82037 8.73961 4.49559C7.78451 3.49237 7.09525 2.76703 6.51185 2.75861ZM16.8665 5.23356C19.3697 5.71953 21.3028 7.65138 21.7899 10.1558C21.885 10.6466 21.5662 11.1193 21.0778 11.2144C21.0189 11.2252 20.9611 11.2312 20.9034 11.2312C20.48 11.2312 20.1035 10.9329 20.0193 10.5022C19.6728 8.72196 18.3003 7.34946 16.5225 7.00422C16.0329 6.9092 15.7141 6.43646 15.8091 5.94688C15.9042 5.4573 16.3853 5.13733 16.8665 5.23356ZM16.7944 0.96112C21.6998 1.50603 25.5094 5.31079 26.0591 10.215C26.1145 10.7106 25.7584 11.1569 25.264 11.2122C25.2303 11.2158 25.1955 11.2182 25.1618 11.2182C24.7083 11.2182 24.3185 10.8778 24.2668 10.4171C23.8109 6.3561 20.6569 3.20452 16.5948 2.75343C16.1004 2.6981 15.7431 2.25303 15.7984 1.75744C15.8526 1.26305 16.294 0.898569 16.7944 0.96112Z" fill="#057487"/>
</svg>
