<svg width="23" height="33" viewBox="0 0 23 33" fill="none" xmlns="http://www.w3.org/2000/svg">
<path fill-rule="evenodd" clip-rule="evenodd" d="M9.72154 1.85266C9.12534 2.32186 8.36048 3.24067 8.02236 3.89446C7.68424 4.54865 7.14316 5.0836 6.82015 5.0836C5.97116 5.0836 4.18581 7.88904 3.89669 9.67765C3.71906 10.7749 3.44464 11.209 2.92888 11.209C1.79446 11.209 0.762531 14.2378 1.12434 16.5058C1.28646 17.5231 1.43959 19.1822 1.4645 20.1929C1.55965 24.0331 4.82735 27.5761 9.17393 28.5525C11.1573 28.9976 11.3223 29.1283 11.5122 30.3991C11.6245 31.1509 11.93 31.8369 12.1909 31.9231C12.5204 32.0317 12.6001 31.5911 12.4514 30.4836C12.2375 28.8873 12.2375 28.8873 13.9542 28.6129C19.4217 27.7386 22.4277 23.7947 22.4861 17.4189C22.5236 13.3206 21.7036 10.8006 20.3324 10.8006C19.6284 10.8006 19.3421 10.4348 18.9738 9.06511C18.6597 7.89639 17.8985 6.75053 16.6432 5.5573C15.6179 4.58254 14.7791 3.6425 14.7791 3.46895C14.7791 3.06671 11.816 1 11.239 1C11.0005 1 10.3178 1.38386 9.72154 1.85266ZM13.7345 3.82544C14.9355 5.08728 14.9355 5.08728 13.6369 6.42711C12.0092 8.10669 11.0246 8.11608 9.42752 6.46876C8.16896 5.17017 8.16896 5.17017 9.67744 3.5008C11.3587 1.6399 11.6788 1.66563 13.7345 3.82544ZM17.8128 8.5514C18.7091 10.4401 18.625 10.9321 17.2684 11.7333C15.8506 12.5709 15.5958 12.5987 15.5958 11.9147C15.5958 11.6288 15.0286 10.7067 14.3352 9.8655C13.0746 8.33619 13.0746 8.33619 14.3915 7.1058C15.9045 5.69247 16.5947 5.98404 17.8128 8.5514ZM8.87665 7.31121C9.87917 8.31373 9.87917 8.31373 8.85786 9.81854C8.29637 10.6459 7.83696 11.5729 7.83696 11.8787C7.83696 12.5966 7.43595 12.5791 5.85805 11.7917C4.4051 11.0669 4.3953 11.0346 5.03643 9.12596C6.00424 6.24375 7.23014 5.6647 8.87665 7.31121ZM13.2473 9.88183C15.0841 11.8068 15.2924 12.9437 14.2286 15.2391C13.4629 16.8922 13.1771 17.18 12.6148 16.8656C12.188 16.6267 11.6576 16.6296 11.2027 16.8734C9.93471 17.5517 8.2053 13.7927 8.88073 11.8273C9.95676 8.698 11.4734 8.02216 13.2473 9.88183ZM21.29 13.5318C22.3717 16.6533 21.6297 18.1364 18.5699 18.9703C13.4911 20.3538 12.9713 15.0978 17.9267 12.4655C20.022 11.3523 20.5978 11.5353 21.29 13.5318ZM5.79394 12.8416C7.23667 13.5779 9.49613 16.4973 9.45693 17.5745C9.39894 19.1594 7.82226 19.8944 5.48113 19.4281C2.68468 18.8711 2.11992 18.2271 2.11992 15.596C2.11992 12.0327 2.96523 11.3989 5.79394 12.8416ZM13.2702 18.5035C13.9003 18.9188 14.6905 19.651 15.0266 20.1309C15.5929 20.9394 15.7359 20.9623 16.9855 20.44C18.5058 19.8046 21.7212 19.1863 21.7212 19.5293C21.7212 23.6644 14.4005 29.8114 12.5188 27.2559C12.0075 26.5613 11.9643 26.5605 11.7017 27.2371C10.7792 29.6171 4.5513 26.1113 2.87702 22.2694C1.77281 19.7364 2.38535 19.515 7.02106 20.7708C7.86065 20.9982 8.33026 20.7528 9.65621 19.395C11.4918 17.5153 11.6951 17.4651 13.2702 18.5035Z" fill="white" stroke="white" stroke-width="0.7"/>
</svg>
