<svg width="20" height="26" viewBox="0 0 20 26" fill="none" xmlns="http://www.w3.org/2000/svg">
<path fill-rule="evenodd" clip-rule="evenodd" d="M19.7362 21.0508C19.7362 25.1413 14.1267 25.6141 9.90842 25.6141L9.60655 25.6138C6.919 25.6073 0.078125 25.4376 0.078125 21.026C0.078125 17.019 5.4622 16.4835 9.6484 16.4633L10.2103 16.4629C12.8976 16.4694 19.7362 16.6391 19.7362 21.0508ZM9.90842 18.3242C4.62034 18.3242 1.93969 19.2327 1.93969 21.026C1.93969 22.8354 4.62034 23.7525 9.90842 23.7525C15.1953 23.7525 17.8747 22.8441 17.8747 21.0508C17.8747 19.2414 15.1953 18.3242 9.90842 18.3242ZM9.90842 0.954102C13.5422 0.954102 16.4971 3.91026 16.4971 7.54403C16.4971 11.1778 13.5422 14.1327 9.90842 14.1327H9.86871C6.24238 14.1216 3.30483 11.1642 3.31721 7.54031C3.31721 3.91026 6.27341 0.954102 9.90842 0.954102ZM9.90842 2.72631C7.25135 2.72631 5.08943 4.88696 5.08943 7.54403C5.08077 10.1924 7.22653 12.3518 9.87243 12.3618L9.90842 13.2479V12.3618C12.5642 12.3618 14.7249 10.1999 14.7249 7.54403C14.7249 4.88696 12.5642 2.72631 9.90842 2.72631Z" fill="#057487"/>
</svg>
