<svg width="26" height="26" viewBox="0 0 26 26" fill="none" xmlns="http://www.w3.org/2000/svg">
<path fill-rule="evenodd" clip-rule="evenodd" d="M12.5352 0.956055C18.9247 0.956055 24.1219 6.15331 24.1219 12.5428C24.1219 15.5573 22.9651 18.3067 21.0719 20.3702L24.7971 24.0875C25.1457 24.4362 25.1469 25.0001 24.7982 25.3488C24.6245 25.5249 24.3949 25.6117 24.1664 25.6117C23.9392 25.6117 23.7107 25.5249 23.5358 25.3511L19.7657 21.5916C17.7825 23.1798 15.2679 24.1307 12.5352 24.1307C6.14571 24.1307 0.947266 18.9323 0.947266 12.5428C0.947266 6.15331 6.14571 0.956055 12.5352 0.956055ZM12.5352 2.74083C7.12971 2.74083 2.73204 7.13731 2.73204 12.5428C2.73204 17.9483 7.12971 22.3459 12.5352 22.3459C17.9395 22.3459 22.3372 17.9483 22.3372 12.5428C22.3372 7.13731 17.9395 2.74083 12.5352 2.74083Z" fill="#057487"/>
</svg>
