<svg width="24" height="26" viewBox="0 0 24 26" fill="none" xmlns="http://www.w3.org/2000/svg">
<path fill-rule="evenodd" clip-rule="evenodd" d="M12.4227 0.587891C13.2866 0.587891 14.1263 0.942603 14.7284 1.55913C15.3292 2.17927 15.661 3.02986 15.6357 3.89251C15.6381 4.08676 15.702 4.31117 15.8178 4.50783C16.0097 4.83358 16.3125 5.06282 16.672 5.15693C17.0316 5.24621 17.408 5.19795 17.7277 5.00853C19.2721 4.12657 21.2375 4.65502 22.1194 6.18728L22.8711 7.4891C22.8904 7.52409 22.9073 7.55787 22.9217 7.59286C23.7205 9.1022 23.1872 11.0024 21.7032 11.8699C21.4872 11.9942 21.3123 12.1679 21.1916 12.3779C21.0046 12.7024 20.9527 13.0885 21.0468 13.4432C21.1434 13.8052 21.3738 14.1056 21.6983 14.2914C22.4307 14.7124 22.9772 15.4219 23.1956 16.2411C23.414 17.0591 23.2946 17.9471 22.8687 18.6794L22.0675 20.0138C21.1856 21.5292 19.2202 22.054 17.6915 21.1709C17.4876 21.0538 17.2524 20.9899 17.0183 20.9839H17.0111C16.6624 20.9839 16.3041 21.1323 16.0435 21.3917C15.7792 21.6559 15.6345 22.0082 15.6369 22.3822C15.6284 24.1546 14.1866 25.5879 12.4227 25.5879H10.911C9.13863 25.5879 7.69685 24.1473 7.69685 22.375C7.69444 22.1566 7.6317 21.9298 7.51467 21.7331C7.32525 21.4025 7.0188 21.166 6.66529 21.0719C6.3142 20.9778 5.92932 21.0297 5.61322 21.2131C4.85553 21.6354 3.96392 21.7379 3.14833 21.5087C2.33393 21.2783 1.63054 20.7184 1.21792 19.9764L0.463851 18.677C-0.418104 17.1472 0.106726 15.1866 1.63416 14.3034C2.0673 14.0537 2.33635 13.588 2.33635 13.0885C2.33635 12.589 2.0673 12.1221 1.63416 11.8723C0.105519 10.9843 -0.418104 9.01895 0.462645 7.4891L1.28066 6.14626C2.15055 4.6333 4.11715 4.10003 5.65062 4.98078C5.85934 5.10505 6.08617 5.16779 6.31661 5.1702C7.06826 5.1702 7.69685 4.55005 7.70892 3.78754C7.70409 2.94661 8.03588 2.13946 8.64034 1.53017C9.24721 0.922093 10.0532 0.587891 10.911 0.587891H12.4227ZM12.4227 2.39765H10.911C10.537 2.39765 10.1871 2.54364 9.92285 2.80665C9.65984 3.07088 9.51626 3.42197 9.51867 3.79599C9.49334 5.5599 8.05156 6.97996 6.30575 6.97996C5.74593 6.97392 5.20662 6.82311 4.7385 6.5432C4.08095 6.16918 3.22192 6.39963 2.83705 7.06924L2.02024 8.41208C1.64623 9.06118 1.87546 9.919 2.54145 10.3063C3.52958 10.8782 4.14611 11.9447 4.14611 13.0885C4.14611 14.2323 3.52958 15.2976 2.53904 15.8707C1.87667 16.2544 1.64743 17.1074 2.0311 17.7709L2.79241 19.0836C2.98062 19.4226 3.28828 19.6676 3.6442 19.7677C3.99891 19.8666 4.38982 19.8244 4.71558 19.6434C5.19456 19.3623 5.75196 19.2163 6.31178 19.2163C6.58807 19.2163 6.86436 19.2513 7.13462 19.3237C7.95022 19.5433 8.65844 20.0886 9.0783 20.821C9.35097 21.2807 9.50178 21.8176 9.50661 22.3653C9.50661 23.1495 10.1364 23.7781 10.911 23.7781H12.4227C13.1937 23.7781 13.8235 23.1532 13.8271 22.3822C13.8223 21.5304 14.1553 20.7208 14.7646 20.1116C15.3654 19.5107 16.2051 19.15 17.0449 19.1741C17.595 19.1874 18.1247 19.3358 18.5916 19.6012C19.2636 19.9861 20.1214 19.7568 20.5099 19.0933L21.3111 17.7577C21.4896 17.45 21.5415 17.0639 21.4462 16.708C21.3521 16.3521 21.1156 16.0432 20.7971 15.861C20.0515 15.4315 19.5194 14.739 19.2986 13.9089C19.0802 13.0945 19.1997 12.2053 19.6256 11.473C19.9031 10.9904 20.3097 10.5838 20.7971 10.3039C21.451 9.92142 21.6803 9.066 21.3002 8.40001C21.2845 8.37347 21.27 8.34572 21.258 8.31676L20.551 7.09096C20.1661 6.42134 19.3095 6.1909 18.6374 6.57336C17.9111 7.00288 17.0473 7.12594 16.2172 6.90757C15.3883 6.69281 14.6934 6.16798 14.2602 5.42718C13.9827 4.96389 13.8319 4.42458 13.8271 3.87562C13.838 3.46299 13.6932 3.0926 13.4302 2.82113C13.1684 2.55088 12.8004 2.39765 12.4227 2.39765ZM11.6722 9.00218C13.9247 9.00218 15.7574 10.8361 15.7574 13.0886C15.7574 15.3412 13.9247 17.1726 11.6722 17.1726C9.41962 17.1726 7.58694 15.3412 7.58694 13.0886C7.58694 10.8361 9.41962 9.00218 11.6722 9.00218ZM11.6722 10.8119C10.4174 10.8119 9.3967 11.8338 9.3967 13.0886C9.3967 14.3434 10.4174 15.3629 11.6722 15.3629C12.9269 15.3629 13.9476 14.3434 13.9476 13.0886C13.9476 11.8338 12.9269 10.8119 11.6722 10.8119Z" fill="#057487"/>
</svg>
