<svg width="21" height="21" viewBox="0 0 21 21" fill="none" xmlns="http://www.w3.org/2000/svg">
<path d="M10.5551 1.19249C10.643 1.00467 10.9101 1.00467 10.9979 1.19249L13.4845 6.51067C13.6659 6.89853 14.0339 7.16592 14.4588 7.21854L20.2851 7.94006C20.4909 7.96555 20.5734 8.21957 20.4219 8.36114L16.1325 12.3695C15.8196 12.6618 15.6791 13.0944 15.7603 13.5148L16.8745 19.2789C16.9139 19.4825 16.6978 19.6395 16.5163 19.5392L11.3787 16.6983L11.1367 17.1358L11.3787 16.6983C11.004 16.4911 10.5491 16.4911 10.1744 16.6983L10.4163 17.1358L10.1744 16.6983L5.03669 19.5392C4.85525 19.6395 4.63916 19.4825 4.67851 19.2789L5.79272 13.5148C5.87398 13.0944 5.73341 12.6618 5.42057 12.3695L1.1311 8.36114C0.979608 8.21957 1.06215 7.96555 1.26792 7.94006L7.09421 7.21854C7.51913 7.16592 7.88716 6.89853 8.06851 6.51067L10.5551 1.19249Z" stroke="#C0C0C0"/>
</svg>
