<svg width="21" height="21" viewBox="0 0 21 21" fill="none" xmlns="http://www.w3.org/2000/svg">
<path d="M10.0915 0.980713C10.359 0.408596 11.1726 0.408597 11.4401 0.980714L13.9267 6.29889C14.0352 6.5309 14.2554 6.69085 14.5095 6.72233L20.3358 7.44385C20.9626 7.52147 21.214 8.29525 20.7526 8.72646L16.4631 12.7348C16.276 12.9097 16.1919 13.1685 16.2405 13.4199L17.3547 19.184C17.4746 19.8041 16.8164 20.2823 16.2637 19.9767L11.126 17.1358C10.9018 17.0119 10.6297 17.0119 10.4056 17.1358L5.2679 19.9767C4.7152 20.2823 4.05699 19.8041 4.17685 19.184L5.29107 13.4199C5.33968 13.1685 5.25559 12.9097 5.06845 12.7348L0.778979 8.72646C0.317528 8.29525 0.568944 7.52147 1.19572 7.44385L7.02202 6.72233C7.2762 6.69085 7.49635 6.5309 7.60484 6.29889L10.0915 0.980713Z" fill="#CC4E3A"/>
</svg>
