<svg width="27" height="26" viewBox="0 0 27 26" fill="none" xmlns="http://www.w3.org/2000/svg">
<path fill-rule="evenodd" clip-rule="evenodd" d="M13.6674 2.61487C13.5445 2.61487 13.2418 2.64865 13.081 2.97026L10.6134 7.90393C10.2229 8.68364 9.47023 9.22552 8.59998 9.34984L3.07579 10.1458C2.71094 10.1985 2.58662 10.4687 2.54878 10.5822C2.515 10.6917 2.46094 10.9701 2.71229 11.2106L6.70679 15.0483C7.34326 15.6605 7.63244 16.5429 7.48109 17.4064L6.54057 22.8252C6.48247 23.1644 6.69462 23.3617 6.78922 23.4292C6.88921 23.5049 7.15678 23.6549 7.48785 23.4819L12.4269 20.9212C13.2053 20.5198 14.1323 20.5198 14.9079 20.9212L19.8457 23.4806C20.1781 23.6522 20.4456 23.5022 20.547 23.4292C20.6416 23.3617 20.8537 23.1644 20.7956 22.8252L19.8524 17.4064C19.7011 16.5429 19.9902 15.6605 20.6267 15.0483L24.6212 11.2106C24.8739 10.9701 24.8199 10.6903 24.7847 10.5822C24.7482 10.4687 24.6239 10.1985 24.2591 10.1458L18.7349 9.34984C17.866 9.22552 17.1133 8.68364 16.7228 7.90258L14.2525 2.97026C14.0931 2.64865 13.7904 2.61487 13.6674 2.61487ZM7.17705 25.5873C6.61895 25.5873 6.06491 25.4116 5.5906 25.0657C4.7717 24.4657 4.37036 23.4752 4.54468 22.4779L5.4852 17.0591C5.52033 16.8578 5.45141 16.6537 5.30277 16.5105L1.30827 12.6727C0.573153 11.9687 0.309646 10.9282 0.620449 9.96199C0.933955 8.98498 1.76366 8.28635 2.78661 8.14041L8.3108 7.34448C8.52431 7.31475 8.70809 7.18368 8.79998 6.99719L11.2688 2.06218C11.7242 1.15274 12.6431 0.587891 13.6674 0.587891C14.6917 0.587891 15.6106 1.15274 16.066 2.06218L18.5362 6.99584C18.6295 7.18368 18.8119 7.31475 19.0241 7.34448L24.5482 8.14041C25.5712 8.28635 26.4009 8.98498 26.7144 9.96199C27.0252 10.9282 26.7604 11.9687 26.0252 12.6727L22.0307 16.5105C21.8821 16.6537 21.8145 16.8578 21.8497 17.0578L22.7915 22.4779C22.9645 23.4765 22.5632 24.467 21.7429 25.0657C20.9118 25.6751 19.8294 25.7575 18.9119 25.2792L13.9755 22.7211C13.7823 22.6211 13.5512 22.6211 13.358 22.7211L8.42161 25.2805C8.02702 25.4859 7.60136 25.5873 7.17705 25.5873Z" fill="#057487"/>
</svg>
