<svg width="38" height="36" viewBox="0 0 38 36" fill="none" xmlns="http://www.w3.org/2000/svg">
<path fill-rule="evenodd" clip-rule="evenodd" d="M19.0471 3.68263C18.8744 3.68263 18.4494 3.73007 18.2236 4.18167L14.7588 11.1093C14.2104 12.2042 13.1535 12.9651 11.9315 13.1396L4.17468 14.2572C3.66236 14.3312 3.4878 14.7107 3.43467 14.8701C3.38723 15.0238 3.31133 15.4147 3.66426 15.7524L9.27318 21.1413C10.1669 22.0008 10.5729 23.2399 10.3604 24.4523L9.03979 32.0612C8.9582 32.5375 9.2561 32.8145 9.38893 32.9094C9.52934 33.0156 9.90504 33.2262 10.3699 32.9834L17.3052 29.3877C18.3981 28.8241 19.6998 28.8241 20.7889 29.3877L27.7223 32.9815C28.1891 33.2225 28.5648 33.0118 28.7071 32.9094C28.8399 32.8145 29.1378 32.5375 29.0562 32.0612L27.7318 24.4523C27.5193 23.2399 27.9253 22.0008 28.819 21.1413L34.428 15.7524C34.7828 15.4147 34.7069 15.0219 34.6575 14.8701C34.6063 14.7107 34.4317 14.3312 33.9194 14.2572L26.1626 13.1396C24.9425 12.9651 23.8856 12.2042 23.3372 11.1074L19.8687 4.18167C19.6448 3.73007 19.2197 3.68263 19.0471 3.68263ZM9.9335 35.9396C9.14985 35.9396 8.37188 35.693 7.70587 35.2072C6.55601 34.3647 5.99246 32.9739 6.23723 31.5735L7.55787 23.9647C7.6072 23.682 7.51043 23.3955 7.30171 23.1943L1.69279 17.8055C0.660564 16.8169 0.290557 15.3559 0.726975 13.9992C1.16719 12.6273 2.33224 11.6463 3.76862 11.4414L11.5255 10.3238C11.8253 10.282 12.0833 10.098 12.2124 9.83613L15.679 2.90657C16.3185 1.62957 17.6088 0.836426 19.0471 0.836426C20.4853 0.836426 21.7756 1.62957 22.4151 2.90657L25.8836 9.83423C26.0146 10.098 26.2707 10.282 26.5686 10.3238L34.3255 11.4414C35.7619 11.6463 36.9269 12.6273 37.3671 13.9992C37.8036 15.3559 37.4316 16.8169 36.3994 17.8055L30.7905 23.1943C30.5818 23.3955 30.4869 23.682 30.5362 23.9628L31.8588 31.5735C32.1017 32.9758 31.5381 34.3666 30.3863 35.2072C29.2194 36.063 27.6995 36.1787 26.4111 35.507L19.4797 31.9151C19.2083 31.7747 18.8839 31.7747 18.6125 31.9151L11.6811 35.5089C11.127 35.7973 10.5293 35.9396 9.9335 35.9396Z" fill="white"/>
</svg>
