<svg width="26" height="26" viewBox="0 0 26 26" fill="none" xmlns="http://www.w3.org/2000/svg">
<path fill-rule="evenodd" clip-rule="evenodd" d="M18.1031 0.966797C22.3206 0.966797 25.1543 3.92726 25.1543 8.33308V18.6005C25.1543 23.0063 22.3206 25.9668 18.1031 25.9668H7.20546C2.98802 25.9668 0.154297 23.0063 0.154297 18.6005V8.33308C0.154297 3.92726 2.98802 0.966797 7.20546 0.966797H18.1031ZM18.1031 2.71098H7.20546C3.9822 2.71098 1.89848 4.9168 1.89848 8.33308V18.6005C1.89848 22.0168 3.9822 24.2226 7.20546 24.2226H18.1031C21.3276 24.2226 23.4101 22.0168 23.4101 18.6005V8.33308C23.4101 4.9168 21.3276 2.71098 18.1031 2.71098ZM7.27185 10.5046C7.75325 10.5046 8.14395 10.8953 8.14395 11.3767V19.3534C8.14395 19.8348 7.75325 20.2255 7.27185 20.2255C6.79046 20.2255 6.39976 19.8348 6.39976 19.3534V11.3767C6.39976 10.8953 6.79046 10.5046 7.27185 10.5046ZM12.6986 6.68598C13.18 6.68598 13.5707 7.07668 13.5707 7.55808V19.3523C13.5707 19.8337 13.18 20.2244 12.6986 20.2244C12.2172 20.2244 11.8265 19.8337 11.8265 19.3523V7.55808C11.8265 7.07668 12.2172 6.68598 12.6986 6.68598ZM18.0362 14.7197C18.5176 14.7197 18.9083 15.1104 18.9083 15.5918V19.3523C18.9083 19.8337 18.5176 20.2244 18.0362 20.2244C17.5548 20.2244 17.1641 19.8337 17.1641 19.3523V15.5918C17.1641 15.1104 17.5548 14.7197 18.0362 14.7197Z" fill="#057487"/>
</svg>
