<svg width="24" height="26" viewBox="0 0 24 26" fill="none" xmlns="http://www.w3.org/2000/svg">
<path fill-rule="evenodd" clip-rule="evenodd" d="M20.8308 9.07305C21.3524 9.11599 21.7414 9.57194 21.6997 10.0936C21.6922 10.1795 21.0076 18.6556 20.6135 22.211C20.3685 24.4175 18.911 25.7601 16.7108 25.8005C15.0272 25.8295 13.403 25.8459 11.8154 25.8459C10.104 25.8459 8.43551 25.827 6.78475 25.7929C4.67298 25.7512 3.21166 24.3821 2.97295 22.2198C2.5751 18.6328 1.89434 10.1782 1.88802 10.0936C1.84508 9.57194 2.23409 9.11473 2.75571 9.07305C3.26976 9.05915 3.73455 9.42038 3.77623 9.94074C3.78027 9.99556 4.05857 13.4482 4.36185 16.8642L4.42276 17.546C4.57551 19.2439 4.73035 20.8755 4.85612 22.0114C4.99126 23.2403 5.65434 23.8744 6.8239 23.8984C9.98145 23.9653 13.2034 23.9691 16.6767 23.9059C17.9195 23.8819 18.5914 23.2605 18.7304 22.0026C19.1219 18.4737 19.8039 10.0266 19.8115 9.94074C19.8532 9.42038 20.3142 9.05663 20.8308 9.07305ZM14.4662 0.585938C15.6256 0.585938 16.6449 1.36775 16.9442 2.48804L17.265 4.08071C17.3687 4.60281 17.8269 4.98409 18.3574 4.99247L22.5023 4.99261C23.0251 4.99261 23.4495 5.41699 23.4495 5.93987C23.4495 6.46276 23.0251 6.88714 22.5023 6.88714L18.3944 6.88695C18.388 6.88708 18.3816 6.88714 18.3752 6.88714L18.3444 6.88588L5.24136 6.88698C5.23117 6.88709 5.22098 6.88714 5.21077 6.88714L5.19132 6.88588L1.08398 6.88714C0.561093 6.88714 0.136719 6.46276 0.136719 5.93987C0.136719 5.41699 0.561093 4.99261 1.08398 4.99261L5.22795 4.99135L5.35554 4.98327C5.8308 4.92161 6.22578 4.56066 6.32223 4.08071L6.62914 2.54488C6.94111 1.36775 7.96036 0.585938 9.11981 0.585938H14.4662ZM14.4662 2.48047H9.11981C8.81669 2.48047 8.55019 2.68381 8.47315 2.97557L8.17887 4.4533C8.14146 4.64048 8.087 4.82086 8.01731 4.99295H15.5691C15.4993 4.82086 15.4447 4.64048 15.4071 4.4533L15.1002 2.91747C15.0358 2.68381 14.7693 2.48047 14.4662 2.48047Z" fill="#057487"/>
</svg>
