<svg width="33" height="21" viewBox="0 0 33 21" fill="none" xmlns="http://www.w3.org/2000/svg">
<path fill-rule="evenodd" clip-rule="evenodd" d="M31.924 1.99119C32.1656 1.22562 31.924 0.669081 30.8551 0.669081H27.3007C26.4041 0.669081 25.9901 1.15639 25.7485 1.67763C25.7485 1.67763 23.9201 6.12992 21.3668 9.01643C20.5388 9.85124 20.1594 10.1295 19.7108 10.1295C19.4692 10.1295 19.1583 9.85124 19.1583 9.08634V1.95522C19.1583 1.05119 18.8828 0.633789 18.1233 0.633789H12.5335C11.9811 0.633789 11.6363 1.05119 11.6363 1.46859C11.6363 2.33801 12.9129 2.54705 13.0507 4.98155V10.2714C13.0507 11.419 12.8471 11.6288 12.3951 11.6288C11.1877 11.6288 8.25499 7.14186 6.49579 2.0292C6.15373 1.01658 5.80623 0.633789 4.90899 0.633789H1.32069C0.285672 0.633789 0.113281 1.12042 0.113281 1.64234C0.113281 2.58166 1.32069 7.31154 5.737 13.5719C8.66967 17.8477 12.8444 20.1458 16.6051 20.1458C18.8828 20.1458 19.1583 19.6239 19.1583 18.7544V15.5198C19.1583 14.4766 19.3653 14.3028 20.0902 14.3028C20.6074 14.3028 21.5392 14.5804 23.6439 16.6328C26.0587 19.0673 26.4727 20.1804 27.8186 20.1804H31.3722C32.4073 20.1804 32.8905 19.6585 32.6143 18.6499C32.3041 17.6414 31.1306 16.1808 29.6124 14.442C28.7844 13.4687 27.5423 12.3903 27.1629 11.8683C26.6458 11.1727 26.7835 10.8944 27.1629 10.2686C27.1283 10.2686 31.4761 4.07752 31.924 1.98848" fill="white"/>
</svg>
