<svg width="30" height="29" viewBox="0 0 30 29" fill="none" xmlns="http://www.w3.org/2000/svg">
<path d="M0.609227 28.6387L2.53338 21.5682C1.26552 19.3948 0.599402 16.9229 0.603535 14.4067C0.603535 6.54644 6.97517 0.174805 14.8355 0.174805C22.6957 0.174805 29.0674 6.54644 29.0674 14.4067C29.0674 22.267 22.6957 28.6387 14.8355 28.6387C12.3204 28.6427 9.84953 27.9771 7.6768 26.7102L0.609227 28.6387ZM9.69916 7.72911C9.51537 7.74052 9.33578 7.78893 9.17115 7.87143C9.01677 7.95886 8.87583 8.06815 8.75273 8.19592C8.58195 8.35674 8.48517 8.49621 8.38128 8.63141C7.85529 9.31596 7.57235 10.1562 7.57718 11.0195C7.58002 11.7169 7.76219 12.3958 8.04683 13.0305C8.62892 14.3142 9.58673 15.6734 10.8519 16.9329C11.1565 17.236 11.454 17.5406 11.7742 17.8238C13.3445 19.2064 15.2158 20.2034 17.2392 20.7357L18.049 20.8595C18.3123 20.8737 18.5756 20.8538 18.8403 20.841C19.2548 20.8196 19.6595 20.7074 20.0258 20.5122C20.2122 20.4162 20.3941 20.3117 20.5709 20.1991C20.5709 20.1991 20.6321 20.1593 20.7488 20.071C20.941 19.9287 21.0591 19.8277 21.2185 19.6612C21.3366 19.5388 21.4391 19.395 21.5173 19.2314C21.6284 18.9994 21.7394 18.5568 21.7849 18.1882C21.8191 17.9064 21.8091 17.7527 21.8048 17.6573C21.7991 17.505 21.6725 17.347 21.5344 17.2802L20.7061 16.9087C20.7061 16.9087 19.4679 16.3693 18.7122 16.0249C18.6326 15.9902 18.5472 15.9704 18.4603 15.9665C18.363 15.9565 18.2646 15.9675 18.1718 15.9987C18.079 16.0299 17.9939 16.0805 17.9224 16.1473V16.1444C17.9152 16.1444 17.8199 16.2256 16.7909 17.4723C16.7319 17.5516 16.6505 17.6116 16.5572 17.6446C16.464 17.6775 16.363 17.682 16.2672 17.6573C16.1745 17.6325 16.0836 17.6011 15.9954 17.5634C15.8189 17.4894 15.7577 17.4609 15.6367 17.4082L15.6296 17.4054C14.8154 17.0499 14.0616 16.5698 13.3952 15.9822C13.2159 15.8257 13.0494 15.6549 12.8786 15.4898C12.3187 14.9536 11.8307 14.347 11.4269 13.6852L11.3429 13.55C11.2826 13.4591 11.2339 13.3611 11.1978 13.2582C11.1437 13.049 11.2846 12.8811 11.2846 12.8811C11.2846 12.8811 11.6304 12.5025 11.7913 12.2976C11.9252 12.1272 12.0501 11.95 12.1655 11.7667C12.3335 11.4963 12.3861 11.2188 12.2979 11.0039C11.8994 10.0304 11.4867 9.06122 11.0626 8.09914C10.9786 7.90843 10.7295 7.77181 10.5033 7.74476C10.4264 7.73623 10.3496 7.72769 10.2727 7.72199C10.0816 7.7125 9.89006 7.7144 9.69916 7.72769V7.72911Z" fill="white"/>
</svg>
